<?xml version="1.0" standalone="no"?>
<!DOCTYPE svg PUBLIC "-//W3C//DTD SVG 20010904//EN"
 "http://www.w3.org/TR/2001/REC-SVG-20010904/DTD/svg10.dtd">
<svg version="1.0" xmlns="http://www.w3.org/2000/svg"
 width="688.000000pt" height="688.000000pt" viewBox="0 0 688.000000 688.000000"
 preserveAspectRatio="xMidYMid meet">
<metadata>
Created by potrace 1.14, written by Peter Selinger 2001-2017
</metadata>
<g transform="translate(0.000000,688.000000) scale(0.100000,-0.100000)"
fill="#000000" stroke="none">
<path d="M3188 6795 c-2 -2 -39 -6 -83 -9 -44 -3 -91 -8 -105 -11 -14 -2 -44
-7 -65 -9 -22 -3 -60 -8 -85 -12 -25 -4 -55 -8 -67 -8 -13 -1 -23 -4 -23 -8 0
-5 -3 -7 -7 -6 -14 4 -229 -43 -283 -62 -21 -7 -165 -52 -180 -55 -3 -1 -14
-5 -25 -9 -256 -99 -386 -160 -563 -262 -57 -32 -112 -63 -123 -69 -10 -5 -19
-13 -19 -17 0 -5 -5 -8 -11 -8 -10 0 -243 -162 -259 -180 -3 -3 -30 -25 -60
-50 -150 -123 -375 -347 -475 -474 -16 -21 -37 -46 -46 -56 -16 -19 -23 -29
-89 -120 -22 -30 -44 -61 -51 -68 -6 -7 -16 -23 -23 -35 -6 -12 -27 -46 -46
-76 -67 -104 -176 -311 -233 -441 -46 -105 -136 -361 -139 -397 0 -5 -5 -19
-10 -33 -11 -29 -64 -269 -72 -325 -3 -22 -8 -56 -11 -75 -7 -42 -13 -93 -22
-180 -10 -89 -9 -519 0 -605 5 -38 10 -88 12 -110 2 -22 6 -53 9 -70 3 -16 8
-48 11 -70 4 -22 8 -47 10 -55 2 -8 7 -31 10 -50 3 -19 17 -80 31 -135 14 -55
26 -104 28 -110 1 -5 5 -16 9 -22 5 -7 6 -13 3 -13 -8 0 74 -232 130 -362 52
-124 109 -236 198 -393 46 -82 203 -307 218 -313 5 -2 8 -8 8 -13 0 -6 10 -20
22 -33 30 -31 59 -66 54 -66 -12 0 284 -304 375 -385 78 -69 199 -165 208
-165 5 0 11 -4 13 -8 4 -11 174 -131 204 -144 13 -6 24 -15 24 -20 0 -4 5 -8
11 -8 6 0 23 -8 37 -18 89 -62 359 -195 512 -252 47 -17 94 -36 105 -40 58
-26 337 -104 449 -126 12 -2 44 -8 71 -13 76 -15 113 -21 195 -31 41 -5 100
-12 130 -16 76 -11 527 -11 625 -1 153 16 211 23 255 32 13 2 40 7 60 10 45 7
56 9 165 34 151 35 245 61 340 96 39 14 77 27 85 30 16 4 74 27 125 50 17 7
55 23 85 36 145 61 390 200 556 314 65 45 186 137 210 160 6 5 28 24 50 40 48
37 324 312 382 380 23 28 48 57 55 65 8 8 44 56 81 105 36 50 70 95 75 101 18
22 118 182 163 259 53 93 141 275 193 400 38 91 134 402 150 484 2 14 -21 46
-77 103 -44 46 -166 172 -271 281 -106 109 -232 240 -280 290 -49 51 -166 173
-260 271 -95 98 -192 200 -217 226 -25 26 -128 134 -230 240 -102 106 -207
216 -235 245 -27 28 -126 132 -220 229 -93 98 -195 204 -225 235 -30 32 -146
152 -257 267 -111 115 -210 219 -220 231 l-19 22 -444 -444 -444 -444 20 -22
c57 -64 552 -558 562 -561 6 -2 73 58 149 132 76 75 143 139 149 142 11 7 40
-20 639 -607 187 -183 436 -427 554 -541 117 -115 270 -264 339 -332 l125
-123 -23 -57 c-36 -88 -93 -206 -103 -213 -5 -3 -8 -9 -7 -13 2 -10 -87 -161
-148 -251 -176 -258 -420 -502 -687 -687 -44 -31 -93 -63 -110 -72 -16 -9 -46
-26 -65 -38 -230 -138 -599 -273 -855 -313 -72 -11 -107 -17 -128 -21 -94 -18
-445 -24 -592 -11 -115 11 -225 26 -235 32 -3 2 -23 6 -45 9 -22 4 -56 9 -75
12 -19 3 -42 9 -50 14 -8 4 -33 11 -55 15 -46 10 -37 7 -100 27 -155 48 -419
162 -486 209 -14 10 -28 16 -31 13 -3 -2 -11 2 -18 11 -7 8 -16 15 -21 15 -7
0 -203 127 -233 151 -6 5 -51 41 -101 81 -87 69 -275 252 -343 333 -18 22 -59
74 -90 115 -31 41 -58 77 -61 80 -4 3 -11 14 -18 25 -7 11 -41 67 -76 125
-108 178 -222 433 -262 590 -2 8 -12 42 -21 75 -9 33 -18 69 -20 80 -15 65
-34 168 -39 210 -4 28 -10 77 -15 110 -9 63 -6 492 3 535 3 14 8 45 11 70 3
25 8 57 11 72 3 16 7 39 9 53 3 14 7 33 10 43 3 9 7 28 10 42 41 209 166 525
288 730 37 60 125 196 141 216 8 10 46 57 83 104 84 105 175 203 275 295 73
66 235 195 247 195 6 0 12 4 14 9 5 14 213 143 298 185 41 21 82 41 90 46 8 5
33 16 55 25 22 9 49 20 60 25 157 72 447 152 630 176 22 3 51 7 65 10 132 24
577 24 695 -1 11 -2 38 -6 60 -9 22 -3 74 -12 115 -21 41 -9 84 -18 95 -21 77
-15 258 -74 369 -118 236 -95 473 -232 661 -381 11 -9 36 -28 54 -43 105 -81
322 -312 444 -472 100 -130 237 -381 311 -566 33 -85 90 -259 101 -308 21
-102 34 -156 41 -169 8 -13 164 -177 454 -476 30 -32 119 -124 196 -205 l142
-147 6 43 c25 168 23 501 -5 713 -20 153 -21 161 -35 225 -3 14 -9 45 -14 70
-4 25 -11 56 -15 70 -4 14 -8 34 -10 45 -11 64 -89 303 -148 450 -83 210 -292
579 -414 730 -5 6 -31 39 -58 74 -154 199 -383 420 -655 634 -41 33 -232 157
-240 157 -6 0 -10 5 -10 10 0 6 -6 10 -14 10 -7 0 -19 7 -26 15 -7 8 -16 12
-21 9 -5 -3 -9 -2 -9 3 0 4 -10 13 -23 19 -12 6 -76 38 -142 72 -142 72 -212
103 -320 144 -91 34 -216 77 -243 83 -9 2 -60 16 -112 30 -52 15 -104 28 -115
30 -11 1 -54 10 -95 19 -81 17 -135 26 -190 31 -19 2 -51 6 -70 9 -19 4 -57 9
-85 12 -55 6 -561 14 -567 9z"/>
<path d="M3008 4138 c-105 -103 -499 -485 -666 -646 -59 -57 -173 -167 -253
-245 -152 -148 -631 -613 -752 -730 -38 -37 -67 -70 -64 -73 2 -3 13 -5 23 -5
11 0 42 1 69 1 102 0 140 1 144 5 2 2 11 0 21 -5 10 -5 20 -6 24 -3 3 3 27 5
54 4 69 -3 135 -1 143 5 4 2 10 0 14 -6 4 -6 11 -8 16 -4 5 3 173 6 373 5
l363 0 181 187 c100 103 236 243 302 311 l121 124 31 -29 c18 -16 48 -44 67
-61 20 -18 54 -50 77 -70 47 -44 197 -180 224 -203 21 -19 161 -146 233 -212
l50 -47 366 -1 c409 -1 454 -1 460 5 2 2 11 0 21 -5 10 -5 20 -6 24 -3 3 3 27
5 54 4 69 -3 135 -1 143 5 4 2 10 0 14 -6 4 -6 12 -7 18 -3 6 4 24 6 39 5 15
-1 28 0 28 4 0 3 -30 35 -67 71 -137 131 -437 420 -513 493 -42 41 -157 152
-254 245 -98 94 -222 213 -276 265 -54 52 -180 174 -281 270 -100 96 -243 235
-318 307 -75 73 -141 133 -147 133 -6 0 -54 -42 -106 -92z"/>
</g>
</svg>
