<svg xmlns="http://www.w3.org/2000/svg" xmlns:xlink="http://www.w3.org/1999/xlink"><defs>
<clipPath id="clip0_260_670">
<rect width="25" height="25" fill="white"/>
</clipPath>

<clipPath id="clip0_260_702">
<rect width="25" height="25" fill="white"/>
</clipPath>

<clipPath id="clip0_260_714">
<rect width="23" height="23" fill="white"/>
</clipPath>

<clipPath id="clip0_131_2742">
<rect width="22" height="22" fill="white" transform="translate(16 16)"/>
</clipPath>

<clipPath id="clip0_131_2520">
<rect width="142" height="42"/>
</clipPath>
</defs><symbol id="icon-address" viewBox="0 0 16 22"><g fill="none">
<path d="M15.5 8.14732C15.5 4.19996 12.1421 1 8 1C3.85786 1 0.5 4.19996 0.5 8.14732V8.57782C0.5 10.1572 1.01784 11.6971 1.98114 12.9823L7.98518 20.9927C7.99245 21.0024 8.00756 21.0024 8.01482 20.9927L14.0189 12.9823C14.9822 11.6971 15.5 10.1572 15.5 8.57782V8.14732Z" stroke="#2D383F" stroke-linecap="round" stroke-linejoin="round"/>
<path d="M6.53407 5.28903C7.46044 4.86389 8.53956 4.86389 9.46593 5.28903C10.3923 5.71417 11.0651 6.51818 11.2939 7.47347C11.5227 8.42875 11.2826 9.43134 10.6415 10.1974C10.0004 10.9635 9.0282 11.4097 8 11.4097C6.9718 11.4097 5.99955 10.9635 5.35848 10.1974C4.7174 9.43134 4.47728 8.42875 4.70608 7.47347C4.93487 6.51818 5.60769 5.71417 6.53407 5.28903Z" stroke="#2D383F" stroke-linecap="round" stroke-linejoin="round"/>
</g></symbol><symbol id="icon-arrow-right" viewBox="0 0 9 14"><g fill="none">
<path d="M1 13L7 7L0.999999 1" stroke="currentColor" stroke-width="2"/>
</g></symbol><symbol id="icon-arrow" viewBox="0 0 14 9">
<path d="M0.646446 4.85355C0.451184 4.65829 0.451184 4.34171 0.646446 4.14645L3.82843 0.964466C4.02369 0.769204 4.34027 0.769204 4.53553 0.964466C4.7308 1.15973 4.7308 1.47631 4.53553 1.67157L1.70711 4.5L4.53553 7.32843C4.7308 7.52369 4.7308 7.84027 4.53553 8.03553C4.34027 8.2308 4.02369 8.2308 3.82843 8.03553L0.646446 4.85355ZM14 5H1V4H14V5Z"/>
</symbol><symbol id="icon-close" viewBox="0 0 22 22">
<path d="M2 2L11 11M20 20L11 11M11 11L20 2L2 20" stroke="currentColor" stroke-width="2"/>
</symbol><symbol id="icon-days" viewBox="0 0 20 20"><g fill="none">
<path d="M13.545 6.45505C12.6455 5.55558 11.3757 4.97357 10 4.97357C8.62433 4.97357 7.35449 5.52912 6.45502 6.45505C5.55555 7.35451 4.97354 8.62435 4.97354 10C4.97354 11.3757 5.55555 12.6455 6.45502 13.545C7.35449 14.4444 8.62433 15.0265 10 15.0265C11.3757 15.0265 12.6455 14.4709 13.545 13.545C14.4444 12.6455 15.0265 11.3757 15.0265 10C15.0265 8.62435 14.4709 7.35451 13.545 6.45505ZM12.5926 12.5926C11.9312 13.254 11.0053 13.6508 10 13.6508C8.9947 13.6508 8.06878 13.254 7.4074 12.5926C6.74603 11.9312 6.3492 11.0053 6.3492 10C6.3492 8.99472 6.74603 8.0688 7.4074 7.40742C8.06878 6.74605 8.9947 6.34923 10 6.34923C11.0053 6.34923 11.9312 6.74605 12.5926 7.40742C13.254 8.0688 13.6508 8.99472 13.6508 10C13.6508 11.0053 13.254 11.9312 12.5926 12.5926Z" fill="white"/>
<path d="M19.3122 9.3122H17.2751C16.9048 9.3122 16.5873 9.62966 16.5873 10C16.5873 10.3704 16.9048 10.6879 17.2751 10.6879H19.3122C19.6825 10.6879 20 10.3704 20 10C20 9.62966 19.6825 9.3122 19.3122 9.3122Z" fill="white"/>
<path d="M9.99999 16.5873C9.62962 16.5873 9.31216 16.9048 9.31216 17.2751V19.3122C9.31216 19.6825 9.62962 20 9.99999 20C10.3704 20 10.6878 19.6825 10.6878 19.3122V17.2751C10.6878 16.9048 10.3704 16.5873 9.99999 16.5873Z" fill="white"/>
<path d="M17.0635 16.1111L15.6085 14.656C15.3704 14.3915 14.9207 14.3915 14.6561 14.656C14.3916 14.9206 14.3916 15.3439 14.6561 15.6084L16.1111 17.0634C16.3757 17.328 16.799 17.328 17.0635 17.0634C17.3281 16.7989 17.3281 16.3756 17.0635 16.1111Z" fill="white"/>
<path d="M9.99999 0C9.62962 0 9.31216 0.317459 9.31216 0.687829V2.72486C9.31216 3.09523 9.62962 3.41269 9.99999 3.41269C10.3704 3.41269 10.6878 3.09523 10.6878 2.72486V0.687829C10.6878 0.317459 10.3704 0 9.99999 0Z" fill="white"/>
<path d="M17.0899 2.93653C16.8254 2.67198 16.4021 2.67198 16.1376 2.93653L14.6825 4.39155C14.418 4.6561 14.418 5.07938 14.6825 5.34393C14.9206 5.60848 15.3704 5.60848 15.6349 5.34393L17.0899 3.88891C17.3545 3.62436 17.3545 3.20108 17.0899 2.93653Z" fill="white"/>
<path d="M2.72487 9.3122H0.687831C0.31746 9.3122 0 9.62966 0 10C0 10.3704 0.291005 10.6879 0.687831 10.6879H2.72487C3.09524 10.6879 3.4127 10.3704 3.4127 10C3.4127 9.62966 3.09524 9.3122 2.72487 9.3122Z" fill="white"/>
<path d="M5.31746 14.656C5.07937 14.3915 4.62963 14.3915 4.36508 14.656L2.91005 16.1111C2.6455 16.3756 2.6455 16.7989 2.91005 17.0634C3.1746 17.328 3.59788 17.328 3.86243 17.0634L5.31746 15.6084C5.58201 15.3439 5.58201 14.9206 5.31746 14.656Z" fill="white"/>
<path d="M5.31746 4.39155L3.86243 2.93653C3.59788 2.67198 3.1746 2.67198 2.91005 2.93653C2.6455 3.20108 2.6455 3.62436 2.91005 3.88891L4.36508 5.34393C4.62963 5.60848 5.05291 5.60848 5.31746 5.34393C5.58201 5.07938 5.58201 4.6561 5.31746 4.39155Z" fill="white"/>
</g></symbol><symbol id="icon-email" viewBox="0 0 22 16"><g fill="none">
<path d="M21 2.55556V13.4444C21 14.3036 20.3604 15 19.5714 15H2.42857C1.63959 15 1 14.3036 1 13.4444V2.55556M21 2.55556C21 1.69645 20.3604 1 19.5714 1H2.42857C1.63959 1 1 1.69645 1 2.55556M21 2.55556L12.8594 10.1534C11.7895 11.152 10.2106 11.152 9.14062 10.1534L1 2.55556" stroke="#2D383F" stroke-linecap="round" stroke-linejoin="round"/>
</g></symbol><symbol id="icon-equipment-border" viewBox="0 0 54 54"><g fill="none">
<path d="M36.7153 30.2434C37.3367 28.1487 36.8254 25.7711 36.2821 24.1236C36.2785 24.0599 36.2602 23.9981 36.2288 23.9439C36.0442 23.4088 35.8737 22.9692 35.7281 22.6519C35.9961 22.5371 36.1729 22.2591 36.1755 21.9486V18.7645C36.1755 18.3423 35.8576 18 35.4654 18H26.7408C26.5447 17.9996 26.3854 18.1704 26.3851 18.3816C26.3851 18.3895 26.3853 18.3973 26.3857 18.4052C26.5064 20.6987 26.3502 22.2544 25.8992 23.3515C25.8903 23.3623 25.882 23.3739 25.8744 23.3859C25.873 23.4049 25.873 23.4241 25.8744 23.4432C25.7022 23.8425 25.4694 24.2081 25.1855 24.525L25.1535 24.5479C25.1535 24.5479 25.1535 24.5479 25.1535 24.5746C24.7372 25.002 24.2571 25.3509 23.7332 25.6067C22.8203 26.0427 21.8835 26.418 20.928 26.7305L20.7469 26.7955C17.4268 27.9805 16.9936 30.1287 17.0007 31.2066C16.9998 31.2219 16.9998 31.2372 17.0007 31.2525V33.9817C17.0012 34.1146 17.0657 34.2376 17.1711 34.3066C17.9848 34.8396 18.8631 35.2486 19.781 35.5222C19.9698 35.5793 20.1659 35.4609 20.219 35.2577C20.229 35.2194 20.2334 35.1797 20.232 35.1399V35.052H20.754V35.4343C20.7517 35.6236 20.8786 35.7862 21.0522 35.8165C21.3612 35.87 21.6701 35.9121 21.9719 35.9388C22.0708 35.9478 22.1687 35.9117 22.2418 35.8395C22.3149 35.7665 22.3561 35.6639 22.3554 35.5566V35.075H22.8774V35.6178C22.8774 35.8288 23.0364 36 23.2325 36C23.5308 36 23.8291 36 24.1486 35.9541C24.3336 35.9382 24.4759 35.7716 24.4753 35.5719V35.075H24.9973V35.4113C24.9948 35.6224 25.1517 35.7958 25.3478 35.7985C25.3683 35.7988 25.3889 35.7972 25.4092 35.7936C26.061 35.6861 26.7035 35.5212 27.3302 35.3005L27.3871 35.2737C29.8727 33.7447 31.4493 35.0023 31.5132 35.0559C31.5752 35.1076 31.6513 35.1358 31.7298 35.1361H32.1701C32.3662 35.1361 32.5252 34.965 32.5252 34.7539V34.1079H33.033V34.7462C33.033 34.9573 33.192 35.1285 33.3881 35.1285H34.5315C34.7276 35.1285 34.8866 34.9573 34.8866 34.7462V34.1079H35.4121V34.7462C35.4121 34.9573 35.5711 35.1285 35.7672 35.1285H36.6443C36.8404 35.1285 36.9993 34.9573 36.9993 34.7462V30.6256C37.0028 30.4411 36.8833 30.2803 36.7153 30.2434ZM28.289 18.7721H35.4476V21.9371H28.289V18.7721ZM23.8255 26.3941L23.8291 26.4171C24.1201 26.6715 24.3888 26.9543 24.6316 27.2618C24.5672 27.3771 24.5339 27.5095 24.5357 27.6441C24.5332 28.0473 24.8349 28.3763 25.2095 28.3789C25.584 28.3815 25.8896 28.0568 25.8921 27.6536C25.8944 27.2737 25.6257 26.9555 25.2743 26.9216C25.0497 26.592 24.7938 26.2884 24.5108 26.0157C24.8281 25.8213 25.1267 25.5934 25.4021 25.3353C25.7465 25.6831 26.0669 26.0574 26.3608 26.4553C26.2373 26.836 26.4238 27.2523 26.7774 27.3854C27.131 27.5183 27.5178 27.3176 27.6414 26.9369C27.7649 26.5563 27.5784 26.1399 27.2248 26.0069C27.1515 25.9793 27.0742 25.9655 26.9965 25.966H26.9112C26.5998 25.5439 26.2604 25.1466 25.8957 24.7772C26.0649 24.5529 26.2147 24.3124 26.3431 24.0586C26.8928 24.3667 27.4241 24.7113 27.9339 25.0907C27.9304 25.4981 28.2344 25.8314 28.6129 25.8352C28.9914 25.839 29.301 25.5117 29.3045 25.1043C29.308 24.6969 29.004 24.3635 28.6255 24.3598C28.5174 24.3587 28.4106 24.3851 28.3138 24.437C27.7773 24.046 27.2187 23.6911 26.6414 23.3744C27.0284 22.2659 27.1953 20.7942 27.1172 18.7874H27.5824V21.9524C27.5824 22.3747 27.9003 22.7169 28.2925 22.7169H34.9469C35.0392 22.9195 35.1955 23.2712 35.3659 23.7299H35.2203C33.0632 23.7467 31.3271 25.6427 31.3427 27.9648C31.3515 29.2844 31.9353 30.5229 32.9194 31.3098C30.0467 32.124 25.7252 33.0911 22.0891 32.8388C22.7602 29.9529 21.9577 28.1754 21.4357 27.3956C22.2486 27.1086 23.0463 26.7743 23.8255 26.3941ZM20.722 27.6135C21.1055 28.099 22.1069 29.7312 21.3718 32.7318C20.0923 32.6235 18.8497 32.2193 17.7286 31.5468C17.7159 31.4595 17.7076 31.3714 17.7037 31.2831V31.2563C17.6753 30.4421 17.9594 28.68 20.722 27.6135ZM36.1223 34.364V33.7256C36.1223 33.5145 35.9633 33.3434 35.7672 33.3434H34.535C34.3389 33.3434 34.1799 33.5145 34.1799 33.7256V34.364H33.7432V33.7256C33.7432 33.5145 33.5842 33.3434 33.3881 33.3434H32.163C31.9669 33.3434 31.8079 33.5145 31.8079 33.7256V34.3487C31.325 34.0238 29.5602 33.0796 27.0568 34.5857C26.6114 34.7439 26.1572 34.8716 25.6968 34.9679V34.7042C25.6968 34.4931 25.5378 34.3219 25.3417 34.3219H24.1167C23.9206 34.3219 23.7616 34.4931 23.7616 34.7042V35.2279H23.5805V34.6927C23.5805 34.4816 23.4215 34.3105 23.2254 34.3105H21.9932C21.7971 34.3105 21.6381 34.4816 21.6381 34.6927V35.1476L21.457 35.1208V34.6927C21.457 34.4816 21.2981 34.3105 21.102 34.3105H19.8698C19.6892 34.3091 19.5364 34.4538 19.5147 34.6468C18.8845 34.4235 18.2776 34.1301 17.7037 33.7715V32.4031C19.2519 33.286 21.2546 33.6186 23.3852 33.6186C29.0453 33.6186 35.5222 31.2869 36.2856 31.0079L36.2892 34.364H36.1223ZM35.9483 30.3313C35.6465 30.4383 34.9043 30.7135 33.8781 31.0079C32.2894 30.1801 31.6248 28.1228 32.3937 26.4125C32.9197 25.2427 34.0132 24.4917 35.2203 24.4714C35.3603 24.4693 35.5003 24.477 35.6394 24.4944L35.6429 24.5058C36.1649 26.1266 36.6336 28.4392 35.9483 30.3313Z" fill="#0266C1"/>
<path d="M29.6564 19.2347C29.0857 19.2347 28.6231 19.7327 28.6231 20.347C28.625 20.9605 29.0865 21.4573 29.6564 21.4594C30.227 21.4594 30.6897 20.9613 30.6897 20.347C30.6897 19.7327 30.2271 19.2347 29.6564 19.2347ZM29.6564 20.6949C29.4779 20.6949 29.3332 20.5392 29.3332 20.347C29.3332 20.1549 29.4779 19.9992 29.6564 19.9992C29.8348 19.9992 29.9795 20.1549 29.9795 20.347C29.9795 20.5392 29.8348 20.6949 29.6564 20.6949Z" fill="#0266C1"/>
<rect x="0.5" y="0.5" width="53" height="53" stroke="#0266C1"/>
</g></symbol><symbol id="icon-equipment" viewBox="0 0 24 22"><g fill="none">
<path d="M23.6583 14.6155C24.404 12.2805 23.7904 9.63006 23.1385 7.79354C23.1342 7.72248 23.1123 7.65361 23.0746 7.59327C22.853 6.99671 22.6484 6.50669 22.4737 6.15302C22.7953 6.02497 23.0075 5.71509 23.0106 5.36898V1.8195C23.0106 1.34881 22.6291 0.967286 22.1584 0.967286H11.6889C11.4536 0.96686 11.2625 1.15728 11.2621 1.39265C11.2621 1.40144 11.2624 1.41023 11.2628 1.41896C11.4077 3.97561 11.2202 5.70987 10.6791 6.9328C10.6683 6.94494 10.6583 6.95778 10.6492 6.97115C10.6476 6.9924 10.6476 7.01381 10.6492 7.03506C10.4427 7.48024 10.1633 7.88776 9.82259 8.24095L9.78424 8.26652C9.78424 8.26652 9.78424 8.26652 9.78424 8.29634C9.28468 8.77279 8.70853 9.16171 8.07981 9.44683C6.98439 9.93286 5.86021 10.3512 4.71355 10.6996L4.49624 10.772C0.512129 12.093 -0.00772321 14.4877 0.000798953 15.6893C-0.000266318 15.7064 -0.000266318 15.7234 0.000798953 15.7404V18.7829C0.00143811 18.9309 0.07883 19.068 0.205331 19.1451C1.18176 19.7392 2.23574 20.1951 3.33722 20.5001C3.56375 20.5638 3.79907 20.4318 3.86278 20.2052C3.87476 20.1625 3.88003 20.1182 3.87838 20.074V19.976H4.50476V20.4021C4.50204 20.6132 4.65433 20.7944 4.86269 20.8282C5.23341 20.8878 5.60412 20.9347 5.96631 20.9645C6.08498 20.9745 6.20243 20.9343 6.29015 20.8537C6.37783 20.7724 6.42731 20.658 6.42651 20.5384V20.0015H7.05289V20.6066C7.05289 20.8419 7.24368 21.0327 7.479 21.0327C7.83693 21.0327 8.19486 21.0327 8.57835 20.9816C8.8003 20.9638 8.97107 20.7781 8.97037 20.5555V20.0015H9.59675V20.3765C9.59372 20.6118 9.782 20.8051 10.0173 20.8081C10.042 20.8084 10.0666 20.8066 10.091 20.8026C10.8732 20.6828 11.6442 20.499 12.3963 20.2529L12.4645 20.2231C15.4472 18.5187 17.3391 19.9206 17.4158 19.9802C17.4902 20.038 17.5816 20.0694 17.6758 20.0697H18.2041C18.4395 20.0697 18.6302 19.8789 18.6302 19.6436V18.9235H19.2396V19.6351C19.2396 19.8704 19.4304 20.0612 19.6657 20.0612H21.0378C21.2731 20.0612 21.4639 19.8704 21.4639 19.6351V18.9235H22.0945V19.6351C22.0945 19.8704 22.2853 20.0612 22.5206 20.0612H23.5731C23.8084 20.0612 23.9992 19.8704 23.9992 19.6351V15.0416C24.0034 14.8359 23.8599 14.6566 23.6583 14.6155ZM13.5468 1.82802H13.8962H22.1371V5.3562H13.5468V1.82802ZM8.1906 10.3246L8.19486 10.3502C8.54416 10.6338 8.86651 10.949 9.15786 11.2919C9.08058 11.4204 9.04073 11.568 9.04281 11.718C9.03988 12.1675 9.40191 12.5342 9.85135 12.5371C10.3008 12.5401 10.6676 12.178 10.6705 11.7286C10.6733 11.3051 10.3509 10.9504 9.92912 10.9126C9.6596 10.5452 9.35254 10.2067 9.01298 9.90277C9.39377 9.68604 9.75202 9.43197 10.0825 9.1443C10.4958 9.532 10.8803 9.94927 11.233 10.3928C11.0848 10.8171 11.3086 11.2813 11.7329 11.4296C12.1572 11.5778 12.6214 11.354 12.7697 10.9297C12.9179 10.5053 12.6941 10.0412 12.2698 9.89292C12.1817 9.86213 12.0891 9.84674 11.9957 9.84738H11.8935C11.5197 9.37685 11.1125 8.93396 10.6748 8.52218C10.8779 8.27211 11.0576 8.00398 11.2117 7.7211C11.8714 8.06449 12.5089 8.44873 13.1207 8.87159C13.1165 9.32577 13.4813 9.69733 13.9354 9.70154C14.3896 9.70575 14.7612 9.34095 14.7654 8.88677C14.7696 8.43259 14.4048 8.06102 13.9506 8.05682C13.8209 8.05559 13.6927 8.0851 13.5766 8.14294C12.9327 7.70704 12.2624 7.31145 11.5696 6.95836C12.0341 5.72265 12.2344 4.08214 12.1406 1.84507H12.6988V5.37324C12.6988 5.84393 13.0803 6.22546 13.551 6.22546H21.5363C21.6471 6.4513 21.8346 6.84331 22.0391 7.35464H21.8644C19.2758 7.37334 17.1925 9.48694 17.2112 12.0755C17.2218 13.5465 17.9224 14.9272 19.1032 15.8044C15.656 16.712 10.4703 17.79 6.10693 17.5088C6.91227 14.2917 5.94927 12.3103 5.32289 11.441C6.2983 11.1211 7.25561 10.7484 8.1906 10.3246ZM4.46641 11.6839C4.92661 12.2251 6.12823 14.0445 5.24619 17.3895C3.71082 17.2688 2.2196 16.8182 0.874321 16.0686C0.859034 15.9712 0.849074 15.873 0.844493 15.7745V15.7447C0.810404 14.8371 1.15129 12.8727 4.46641 11.6839ZM22.9467 19.209V18.4974C22.9467 18.262 22.7559 18.0713 22.5206 18.0713H21.042C20.8067 18.0713 20.6159 18.262 20.6159 18.4974V19.209H20.0918V18.4974C20.0918 18.262 19.901 18.0713 19.6657 18.0713H18.1956C17.9603 18.0713 17.7695 18.262 17.7695 18.4974V19.1919C17.19 18.8297 15.0722 17.7772 12.0682 19.4561C11.5337 19.6325 10.9886 19.7748 10.4362 19.8822V19.5882C10.4362 19.3529 10.2454 19.1621 10.0101 19.1621H8.54C8.30469 19.1621 8.1139 19.3529 8.1139 19.5882V20.172H7.89658V19.5754C7.89658 19.3401 7.70579 19.1493 7.47047 19.1493H5.99188C5.75656 19.1493 5.56577 19.3401 5.56577 19.5754V20.0825L5.34845 20.0527V19.5754C5.34845 19.3401 5.15767 19.1493 4.92235 19.1493H3.44375C3.22702 19.1478 3.04364 19.3091 3.01764 19.5243C2.26136 19.2753 1.53308 18.9482 0.844493 18.5485V17.023C2.70232 18.0073 5.10557 18.3781 7.66222 18.3781C14.4544 18.3781 22.2266 15.7788 23.1427 15.4677L23.147 19.209H22.9467ZM22.7379 14.7135C22.3757 14.8328 21.4852 15.1396 20.2537 15.4677C18.3473 14.5451 17.5497 12.2516 18.4724 10.3451C19.1036 9.04102 20.4158 8.20393 21.8644 8.18129C22.0324 8.17895 22.2003 8.18747 22.3672 8.20686L22.3715 8.21964C22.9979 10.0263 23.5603 12.6043 22.7379 14.7135Z" fill="#2D383F"/>
</g></symbol><symbol id="icon-examination-border" viewBox="0 0 54 54"><g fill="none">
<path d="M33.6867 36H20.3133M37 23.1103L34.0746 32.8049H19.9254L17 23.1103L22.7717 26.6142L27 18L31.2283 26.6142L37 23.1103Z" stroke="#0266C1"/>
<rect x="0.5" y="0.5" width="53" height="53" stroke="#0266C1"/>
</g></symbol><symbol id="icon-leaf-border" viewBox="0 0 54 54"><g fill="none">
<path d="M26.6903 32.2442C26.0125 29.3813 24.0195 26.9718 21.2754 25.6977C19.924 25.0703 18.4628 24.7518 17 24.7424C17.0856 26.771 17.8343 28.7457 19.1753 30.367C21.0604 32.646 23.9121 33.9803 26.933 33.9998C26.9083 33.4135 26.828 32.8259 26.6903 32.2442ZM26.6903 32.2442C26.1339 29.894 24.6911 27.8494 22.6741 26.4875C22.7081 26.2845 22.749 26.0818 22.7968 25.8799C23.3703 23.4577 24.8852 21.36 27 20C29.1147 21.36 30.6297 23.4577 31.2031 25.8799C31.2509 26.0818 31.2918 26.2845 31.3258 26.4875C29.3088 27.8493 27.8661 29.894 27.3097 32.2442M26.6903 32.2442C26.8279 32.8257 26.9082 33.4131 26.933 33.9992C26.9748 33.9997 27.0166 34 27.0585 34C27.9054 34 28.7394 33.8966 29.5431 33.698C29.5477 33.692 29.5522 33.6859 29.5567 33.6799C28.752 33.8849 27.9162 33.9943 27.067 33.9998M27.3097 32.2442C27.9875 29.3813 29.9805 26.9718 32.7246 25.6977C34.076 25.0703 35.5372 24.7518 37 24.7424C36.9144 26.771 36.1657 28.7457 34.8247 30.367C32.9396 32.646 30.0879 33.9803 27.067 33.9998M27.3097 32.2442C27.172 32.8259 27.0917 33.4135 27.067 33.9998" stroke="#0266C1" stroke-linecap="round" stroke-linejoin="round"/>
<rect x="0.5" y="0.5" width="53" height="53" stroke="#0266C1"/>
</g></symbol><symbol id="icon-level" viewBox="0 0 12 12"><g fill="none">
<path d="M10.909 11.4545H8.94536V0.54541H10.909V11.4545Z" stroke="white" stroke-miterlimit="16" stroke-linecap="round"/>
<path d="M6.98173 11.4545V3.52062H5.01809L5.0181 11.4545H6.98173Z" stroke="white" stroke-miterlimit="16" stroke-linecap="round"/>
<path d="M3.05446 11.4545V6.49582H1.09082V11.4545H3.05446Z" stroke="white" stroke-miterlimit="16" stroke-linecap="round"/>
</g></symbol><symbol id="icon-map" viewBox="0 0 25 25"><g fill="none">
<g clip-path="url(#clip0_260_670)">
<path d="M24.1699 22.2803V6.70123C24.1818 6.44571 23.9843 6.22897 23.7288 6.2171C23.6744 6.21456 23.6199 6.22168 23.5679 6.23812V6.26127L21.4839 6.91426C21.7021 6.33016 21.8316 5.71665 21.8683 5.09423C21.8683 2.28077 19.5875 0 16.774 0C13.9606 0 11.6798 2.28077 11.6798 5.09423C11.7123 5.68754 11.8325 6.27279 12.0364 6.8309L8.59086 5.59902C8.55086 5.5941 8.51045 5.5941 8.47045 5.59902H8.4334C8.37788 5.60001 8.32295 5.61101 8.27131 5.63144L1.12549 8.41011C0.960683 8.47281 0.845774 8.62361 0.829102 8.79913V16.246V24.3967C0.829854 24.6525 1.03779 24.8592 1.2936 24.8585C1.35016 24.8583 1.4062 24.8478 1.45893 24.8274L8.44266 22.1229L16.4082 24.9756C16.5043 25.0081 16.6084 25.0081 16.7046 24.9756L23.8458 22.7434C24.0464 22.6806 24.1796 22.4904 24.1699 22.2803ZM16.774 0.926224C19.076 0.926224 20.9421 2.79228 20.9421 5.09423C20.9421 6.905 18.2236 11.9066 16.774 14.3565C15.3245 11.8881 12.606 6.88184 12.606 5.09423C12.606 2.79228 14.4721 0.926224 16.774 0.926224ZM23.2576 21.9608L17.0241 23.9105V20.3769C17.0241 20.1212 16.8168 19.9138 16.561 19.9138C16.3053 19.9138 16.0979 20.1212 16.0979 20.3769V23.8781L8.90114 21.3032V18.3392C8.90114 18.0835 8.69378 17.8761 8.43803 17.8761C8.18228 17.8761 7.97492 18.0835 7.97492 18.3392V21.3032L1.75533 23.7252V16.5655L4.0431 15.6393C4.28791 15.5652 4.42627 15.3067 4.35217 15.0618C4.27807 14.817 4.01954 14.6787 3.77473 14.7528C3.74914 14.7605 3.72425 14.7705 3.70034 14.7825L1.75527 15.5652V9.11868L7.97486 6.71049V8.09983C7.97486 8.35558 8.18222 8.56294 8.43797 8.56294C8.69373 8.56294 8.90108 8.35558 8.90108 8.09983V6.69197L12.4532 7.96553C13.5923 10.5687 14.9027 13.0936 16.3757 15.5235C16.5083 15.7422 16.7931 15.8119 17.0119 15.6793C17.0755 15.6407 17.129 15.5872 17.1676 15.5235C18.6334 13.1079 19.9391 10.5985 21.0763 8.01184L23.2437 7.33106L23.2576 14.9215L20.9096 15.4911C20.6538 15.5218 20.4714 15.754 20.502 16.0098C20.5327 16.2655 20.765 16.448 21.0207 16.4173C21.0577 16.4218 21.0949 16.4218 21.1319 16.4173L23.2576 15.8986V21.9608H23.2576Z" fill="#2D383F"/>
<path d="M16.7561 2.40332C15.2701 2.40332 14.0654 3.60799 14.0654 5.094C14.0654 6.58001 15.2701 7.78468 16.7561 7.78468C18.2411 7.78213 19.4442 6.57897 19.4468 5.094C19.4468 3.60799 18.2421 2.40332 16.7561 2.40332ZM16.7561 6.85846C15.7899 6.84584 15.0126 6.06028 15.0102 5.094H14.9917C14.9917 4.1195 15.7816 3.32954 16.7561 3.32954C17.7306 3.32954 18.5206 4.1195 18.5206 5.094C18.5206 6.0685 17.7306 6.85846 16.7561 6.85846Z" fill="#2D383F"/>
<path d="M10.6981 13.9672V13.9811L8.45661 13.0132C8.34251 12.9656 8.21411 12.9656 8.10001 13.0132L6.20589 13.7774C5.96802 13.8733 5.85294 14.1439 5.94886 14.3817C6.04478 14.6196 6.31536 14.7347 6.55322 14.6387L8.26673 13.9487L10.3276 14.8194C10.3861 14.8443 10.4492 14.8569 10.5128 14.8564C10.7686 14.8585 10.9776 14.6529 10.9797 14.3971C10.9812 14.2101 10.8701 14.0405 10.6981 13.9672Z" fill="#2D383F"/>
<path d="M18.27 16.6161C18.201 16.393 17.9766 16.2562 17.7467 16.2969L17.7513 16.2599L16.6028 16.5377L14.6578 15.6949C14.4224 15.5926 14.1487 15.7004 14.0465 15.9357C13.9442 16.171 14.052 16.4447 14.2873 16.547L16.3713 17.4732C16.4298 17.4982 16.4929 17.5108 16.5565 17.5103H16.6677L17.9644 17.1954C18.2087 17.1198 18.3455 16.8604 18.27 16.6161Z" fill="#2D383F"/>
</g>

</g></symbol><symbol id="icon-moon" viewBox="0 0 20 20"><g fill="none">
<path d="M19.5272 11.382C19.3228 11.3307 19.1183 11.382 18.9394 11.5103C18.2748 12.0745 17.5081 12.5362 16.6646 12.844C15.8723 13.1518 15.0033 13.3057 14.0831 13.3057C12.0128 13.3057 10.1215 12.4593 8.76681 11.0999C7.41217 9.74052 6.56872 7.84251 6.56872 5.76497C6.56872 4.89291 6.72207 4.0465 6.97767 3.27704C7.25882 2.45628 7.66777 1.71247 8.20451 1.07125C8.43454 0.789119 8.38343 0.378739 8.10227 0.147901C7.92336 0.0196573 7.71888 -0.0316401 7.51441 0.0196573C5.34188 0.609578 3.4505 1.91766 2.09586 3.66177C0.792336 5.38024 0 7.50908 0 9.84311C0 12.6388 1.12461 15.178 2.96487 17.0247C4.80513 18.8715 7.3355 20 10.1215 20C12.4729 20 14.6454 19.1792 16.3835 17.8199C18.147 16.4348 19.425 14.4599 19.9618 12.2028C20.0895 11.8181 19.8851 11.459 19.5272 11.382ZM15.6167 16.7426C14.1342 17.9225 12.2429 18.6406 10.1726 18.6406C7.74444 18.6406 5.54635 17.6403 3.96168 16.0501C2.37701 14.4599 1.3802 12.2541 1.3802 9.81746C1.3802 7.79122 2.04474 5.94451 3.1949 4.45688C3.98724 3.43094 4.98405 2.58453 6.13421 1.99461C6.00642 2.27674 5.87862 2.55888 5.77638 2.86666C5.44411 3.79002 5.29076 4.76467 5.29076 5.79062C5.29076 8.22724 6.28757 10.4587 7.87224 12.0489C9.45691 13.6391 11.6806 14.6394 14.1087 14.6394C15.1822 14.6394 16.2045 14.4599 17.1502 14.1008C17.4825 13.9726 17.8148 13.8443 18.1215 13.6904C17.5081 14.8703 16.6646 15.9219 15.6167 16.7426Z" fill="#ffffff"/>
</g></symbol><symbol id="icon-mountains" viewBox="0 0 25 25"><g fill="none">
<g clip-path="url(#clip0_260_702)">
<path d="M23.4153 24.1879L19.3747 14.7901L15.5583 5.9074C15.4551 5.665 15.1749 5.55224 14.9325 5.65546C14.8192 5.70376 14.7289 5.79404 14.6806 5.9074L11.2744 13.8121L9.93871 16.9177L7.00963 10.1579C6.90634 9.91551 6.62614 9.80274 6.3838 9.90596C6.27044 9.95427 6.18016 10.0445 6.13186 10.1579L3.37928 16.517L0.0399368 24.1831C-0.0654315 24.4246 0.0448861 24.7058 0.286333 24.8112C0.347037 24.8377 0.412572 24.8513 0.478822 24.851H22.9765C23.2399 24.8508 23.4533 24.6371 23.4531 24.3736C23.4531 24.3098 23.4402 24.2467 23.4153 24.1879ZM15.1147 7.29561L18.2107 14.4943H17.1231L15.1576 12.3237C14.9804 12.1287 14.6787 12.1143 14.4837 12.2916C14.4531 12.3194 14.4263 12.351 14.4039 12.3857L13.6692 13.5211H12.4384L15.1147 7.29561ZM6.57074 11.5318L9.018 17.1896H7.68226C7.52007 17.1899 7.36914 17.2726 7.28154 17.4091L6.80449 18.1676L5.57371 16.4311C5.48474 16.3028 5.33864 16.2262 5.18253 16.226H4.54805L6.57074 11.5318ZM1.22779 23.8969L4.13302 17.1801H4.93446L6.42285 19.3029C6.51182 19.4312 6.65792 19.5078 6.81403 19.5081C6.97283 19.5046 7.11947 19.4223 7.20522 19.2886L7.93987 18.1532H9.42826L11.9137 23.8778L1.22779 23.8969ZM12.9584 23.8969L10.4587 18.1246L12.0282 14.4752H13.9364C14.0986 14.4749 14.2495 14.3923 14.3371 14.2558L14.8666 13.44L16.5554 15.3053C16.6455 15.4052 16.7738 15.4624 16.9084 15.4627H18.6162L22.2466 23.9112L12.9584 23.8969Z" fill="#2D383F"/>
<path d="M7.61048 2.08189C7.16044 0.922602 5.85577 0.347698 4.69654 0.797794C3.83338 1.13286 3.26337 1.96221 3.25979 2.8881C3.25508 2.97075 3.25508 3.05352 3.25979 3.13617C2.13192 3.65997 1.64229 4.99893 2.16609 6.12679C2.52883 6.90778 3.30523 7.41351 4.16618 7.42961L4.19003 7.44869H7.52938C9.01139 7.47112 10.2309 6.28786 10.2533 4.80584C10.2757 3.32383 9.09249 2.10431 7.61048 2.08189ZM7.558 6.50891H4.21866C3.50463 6.58267 2.86604 6.0637 2.79228 5.34968C2.71852 4.63565 3.23749 3.99706 3.95151 3.9233C4.20977 3.87124 4.37698 3.61972 4.32492 3.3614C4.32092 3.34166 4.31574 3.32216 4.3093 3.30314C4.26272 3.16968 4.23857 3.02943 4.23774 2.8881C4.23368 2.17146 4.81127 1.58725 5.52792 1.58314C6.16186 1.5795 6.70557 2.03448 6.8138 2.65912C6.85763 2.90993 7.09073 3.08208 7.34333 3.0503C7.41483 3.04559 7.4865 3.04559 7.558 3.0503C8.51305 3.0503 9.2873 3.82455 9.2873 4.7796C9.2873 5.73466 8.51305 6.50891 7.558 6.50891Z" fill="#2D383F"/>
<path d="M23.6966 2.63997C23.7013 2.55733 23.7013 2.47456 23.6966 2.39191C23.6917 1.14836 22.6797 0.144172 21.4362 0.148943C20.517 0.152521 19.6936 0.714604 19.3539 1.56727C17.8794 1.59816 16.7046 2.81392 16.7269 4.29057C16.7493 5.77258 17.9688 6.95584 19.4508 6.93342H22.7902C24.0335 6.91016 25.0226 5.88343 24.9994 4.64006C24.9833 3.77911 24.4776 3.00271 23.6966 2.63997ZM24.0559 4.94758C23.9296 5.54008 23.4102 5.96632 22.8045 5.97455H19.4651C18.5101 5.97455 17.7358 5.2003 17.7358 4.24525C17.7358 3.29019 18.5101 2.51594 19.4651 2.51594C19.5366 2.51123 19.6083 2.51123 19.6798 2.51594C19.9212 2.54099 20.1429 2.38088 20.195 2.14384C20.3146 1.43727 20.9843 0.961417 21.6909 1.08098C22.3975 1.20054 22.8734 1.87026 22.7538 2.57688C22.7416 2.64862 22.7235 2.71922 22.6995 2.78792C22.6153 3.03754 22.7494 3.3082 22.9991 3.39246C23.0181 3.3989 23.0376 3.40415 23.0573 3.40808C23.7582 3.5574 24.2053 4.24668 24.0559 4.94758Z" fill="#2D383F"/>
</g>

</g></symbol><symbol id="icon-nature" viewBox="0 0 23 23"><g fill="none">
<g clip-path="url(#clip0_260_714)">
<path d="M22.8826 16.6365L18.2637 11.472H20.4953C20.7559 11.4714 20.9666 11.2644 20.966 11.0098C20.9657 10.9084 20.9313 10.8099 20.868 10.7296L17.1596 5.96623H19.0469C19.3074 5.96589 19.5184 5.75919 19.5181 5.50454C19.518 5.39271 19.4762 5.28475 19.4007 5.20077L14.8619 0.156126C14.6896 -0.0348923 14.3914 -0.0531642 14.196 0.115317C14.1812 0.128056 14.1673 0.141716 14.1542 0.156126L9.61074 5.19616C9.43618 5.38522 9.45145 5.67682 9.64483 5.84744C9.73247 5.92473 9.84653 5.9671 9.9646 5.96623H11.8754L10.7336 7.42337L7.67634 4.02492C7.50401 3.8339 7.20583 3.81563 7.01039 3.98411C6.99558 3.99685 6.98167 4.01051 6.96863 4.02492L3.08567 8.33639C2.9137 8.52769 2.93298 8.81906 3.12872 8.98714C3.21465 9.06092 3.32511 9.10167 3.43953 9.10184H4.93515L1.83067 13.0721C1.67692 13.2777 1.72274 13.5662 1.93311 13.7165C2.01166 13.7726 2.10609 13.8036 2.20339 13.8053H3.94908L0.113296 18.1167C-0.0560825 18.3102 -0.032905 18.6013 0.165135 18.7669C0.249353 18.8373 0.356335 18.8765 0.46715 18.8776H5.68532V22.1054C5.68532 22.5994 6.09514 23 6.60062 23H8.03963C8.54511 23.0025 8.95706 22.6041 8.95965 22.11C8.95965 22.1085 8.95965 22.107 8.95965 22.1054V18.8776H12.8756V22.1054C12.8756 22.5994 13.2855 23 13.7909 23H15.2299C15.7354 23 16.1453 22.5994 16.1453 22.1054V17.402H22.5288C22.7893 17.4017 23.0003 17.195 23 16.9403C22.9998 16.8285 22.9581 16.7205 22.8826 16.6365ZM8.01604 22.0777L6.62893 22.1054L6.60062 18.8776H8.01604V22.0777ZM12.8756 17.9553H1.50512L5.36449 13.6531C5.53918 13.4642 5.52402 13.1726 5.3307 13.0018C5.24058 12.9223 5.12257 12.8797 5.0012 12.883H3.16116L6.26564 8.91279C6.42458 8.71099 6.38607 8.42146 6.1796 8.26612C6.09738 8.20428 5.99665 8.17061 5.89292 8.17038H4.4775L7.30833 5.02094L10.1392 8.16116L8.14815 10.7342C7.98921 10.936 8.02772 11.2255 8.23419 11.3809C8.31641 11.4427 8.41714 11.4764 8.52087 11.4766H10.7572L6.13825 16.6411C5.96628 16.8325 5.98557 17.1238 6.18131 17.2919C6.26723 17.3657 6.3777 17.4064 6.49211 17.4066H12.8756V17.9553ZM15.2016 22.0685L13.8193 22.1054L13.7909 17.402H15.2064L15.2016 22.0685ZM15.2299 16.4798H7.53008L12.1491 11.3152C12.321 11.1239 12.3017 10.8325 12.106 10.6645C12.0201 10.5907 11.9096 10.5499 11.7952 10.5498H9.47864L13.2059 5.78178C13.3622 5.57808 13.32 5.28902 13.1116 5.13622C13.0312 5.07731 12.9337 5.04497 12.8332 5.04399H11.0262L14.527 1.16137L18.0089 5.04399H16.1877C15.9272 5.04463 15.7164 5.25155 15.717 5.50621C15.7173 5.6076 15.7517 5.70605 15.815 5.7864L19.5187 10.5498H17.221C16.9604 10.5501 16.7495 10.7568 16.7498 11.0115C16.7499 11.1233 16.7916 11.2312 16.8671 11.3152L21.4861 16.4798H15.2299Z" fill="#2D383F"/>
</g>

</g></symbol><symbol id="icon-ok" viewBox="0 0 9 16">
<path d="M4.5 2.42035C5.41587 2.42035 6.1607 3.18736 6.1607 4.1305C6.1607 5.0708 5.41587 5.83781 4.5 5.83781C3.58413 5.83781 2.8393 5.0708 2.8393 4.1305C2.8393 3.18736 3.58413 2.42035 4.5 2.42035ZM4.5 8.25816C6.71243 8.25816 8.51106 6.40597 8.51106 4.1305C8.51106 1.85219 6.71243 0 4.5 0C2.28757 0 0.491701 1.85219 0.491701 4.1305C0.491701 6.40597 2.28757 8.25816 4.5 8.25816ZM6.12208 11.6273C6.93863 11.4342 7.72485 11.1018 8.45037 10.6331C8.99934 10.278 9.16486 9.53083 8.82003 8.96551C8.47244 8.39735 7.74967 8.22691 7.19795 8.58485C5.55656 9.6473 3.44344 9.6473 1.79929 8.58485C1.25033 8.22691 0.524805 8.39735 0.179975 8.96551C-0.164855 9.53083 0.000663014 10.278 0.549632 10.6331C1.27515 11.1018 2.06136 11.4342 2.87792 11.6273L0.63515 13.934C0.177216 14.4056 0.177216 15.1726 0.63515 15.6442C0.866875 15.88 1.16481 15.9993 1.4655 15.9993C1.76619 15.9993 2.06688 15.88 2.29861 15.6442L4.5 13.3772L6.70415 15.6442C7.16208 16.1186 7.90416 16.1186 8.36485 15.6442C8.82278 15.1726 8.82278 14.4056 8.36485 13.934L6.12208 11.6273Z"/>
</symbol><symbol id="icon-open" viewBox="0 0 26 20">
<path d="M0 0.54541H26V2.71534H0V0.54541Z"/>
<path d="M0 17.2846H26V19.4545H0V17.2846Z"/>
<path d="M0 8.91499H16.64V11.0849H0V8.91499Z"/>
</symbol><symbol id="icon-place" viewBox="0 0 9 12"><g fill="none">
<path d="M4.49981 0C2.01874 0 0 1.98191 0 4.41796C0 5.05338 0.132472 5.66006 0.39354 6.2213C1.51862 8.63833 3.67571 11.1902 4.31017 11.9146C4.35771 11.9688 4.42701 12 4.49994 12C4.57287 12 4.64217 11.9688 4.6897 11.9146C5.32392 11.1903 7.48101 8.63857 8.60646 6.2213C8.86765 5.66006 9 5.05338 9 4.41796C8.99975 1.98191 6.98101 0 4.49981 0ZM4.49981 6.71267C3.21099 6.71267 2.16234 5.68315 2.16234 4.41784C2.16234 3.15241 3.21099 2.12289 4.49981 2.12289C5.78864 2.12289 6.83728 3.15241 6.83728 4.41784C6.83741 5.68315 5.78876 6.71267 4.49981 6.71267Z" fill="white"/>
</g></symbol><symbol id="icon-play" viewBox="0 0 12 22">
<path d="M12 11L0 0V22L12 11Z"/>
</symbol><symbol id="icon-reddit" viewBox="0 0 14 15">
<path d="M8.36171 0C7.91277 0 7.49149 0.244007 7.22128 0.59589C6.95106 0.947774 6.80213 1.37671 6.69362 1.82877C6.52128 2.55565 6.46808 3.36216 6.45532 4.08904C5.19361 4.17894 4.05105 4.57962 3.10211 5.19863C2.717 4.85188 2.25317 4.65925 1.80849 4.66438C1.3021 4.66952 0.821252 4.90325 0.463803 5.38356C-0.219178 6.30051 -0.140455 7.80051 0.651038 8.69178C0.602102 8.96661 0.565931 9.24914 0.565931 9.53425C0.565931 12.5548 3.44679 15 7 15C10.5532 15 13.4341 12.5522 13.4341 9.53425C13.4341 9.24914 13.3979 8.96661 13.349 8.69178C14.1405 7.80051 14.2192 6.30051 13.5362 5.38356C13.1788 4.90325 12.6979 4.66952 12.1915 4.66438C11.7468 4.65925 11.283 4.85188 10.8979 5.19863C9.9532 4.58219 8.81703 4.18151 7.5617 4.08904C7.57873 3.41866 7.62341 2.7226 7.74894 2.19863C7.82766 1.86986 7.92128 1.63099 8.02128 1.5C8.12128 1.36901 8.19362 1.31507 8.36171 1.31507C8.72554 1.31507 8.77235 1.44092 8.9915 1.74658C9.10214 1.90068 9.2298 2.09332 9.43405 2.28082C9.63831 2.46832 9.94044 2.63014 10.2681 2.63014V1.31507C10.1766 1.31507 10.1596 1.3125 10.0979 1.25342C10.0362 1.19435 9.95108 1.05822 9.82554 0.883562C9.57448 0.531678 9.08724 0 8.36171 0ZM11.9021 0.123288C11.0553 0.123288 10.3702 0.950343 10.3702 1.9726C10.3702 2.99486 11.0553 3.82192 11.9021 3.82192C12.749 3.82192 13.4341 2.99486 13.4341 1.9726C13.4341 0.950343 12.749 0.123288 11.9021 0.123288ZM11.9021 0.780822C12.4468 0.780822 12.8894 1.31507 12.8894 1.9726C12.8894 2.63014 12.4468 3.16438 11.9021 3.16438C11.3575 3.16438 10.9149 2.63014 10.9149 1.9726C10.9149 1.31507 11.3575 0.780822 11.9021 0.780822ZM7 5.11644C10.0149 5.11644 12.566 7.14298 12.566 9.53425C12.566 11.9281 10.0149 13.9521 7 13.9521C3.98509 13.9521 1.43402 11.9281 1.43402 9.53425C1.43402 7.14298 3.98509 5.11644 7 5.11644ZM1.82551 5.71233C1.97658 5.7149 2.13402 5.75599 2.28509 5.83562C1.73828 6.33647 1.30423 6.91182 1.00849 7.56164C0.80423 7.05308 0.85955 6.41866 1.11061 6.08219C1.29359 5.83562 1.54679 5.70976 1.82551 5.71233ZM12.1745 5.71233C12.4532 5.70976 12.7064 5.83562 12.8894 6.08219C13.1405 6.41866 13.1958 7.05308 12.9915 7.56164C12.6958 6.91182 12.2617 6.33647 11.7149 5.83562C11.866 5.75599 12.0234 5.7149 12.1745 5.71233ZM4.82127 7.35616C4.27658 7.35616 3.83403 7.89041 3.83403 8.54795C3.83403 9.20548 4.27658 9.73973 4.82127 9.73973C5.36595 9.73973 5.80851 9.20548 5.80851 8.54795C5.80851 7.89041 5.36595 7.35616 4.82127 7.35616ZM9.17873 7.35616C8.63405 7.35616 8.19149 7.89041 8.19149 8.54795C8.19149 9.20548 8.63405 9.73973 9.17873 9.73973C9.72342 9.73973 10.166 9.20548 10.166 8.54795C10.166 7.89041 9.72342 7.35616 9.17873 7.35616ZM4.29361 11.4041C4.64042 12.2697 5.71276 13.1096 7 13.1096C8.28724 13.1096 9.37661 12.2697 9.72342 11.4041C9.09363 11.8947 8.10001 12.226 7 12.226C5.9 12.226 4.9234 11.8947 4.29361 11.4041Z"/>
</symbol><symbol id="icon-safety-border" viewBox="0 0 54 54"><g fill="none">
<path d="M24.75 26.912L27 29.1562L30.9375 25.2288M27 17C24.6787 18.187 22.0926 18.8181 19.449 18.8181C19.0921 18.8181 18.7363 18.8066 18.382 18.7838C17.9246 20.8703 17.874 23.0414 18.2515 25.1765C18.9272 28.9986 20.9314 32.4612 23.9122 34.9559C24.868 35.7558 25.9045 36.4398 27 37C28.0955 36.4398 29.132 35.7558 30.0878 34.9559C33.0686 32.4612 35.0728 28.9986 35.7485 25.1765C36.126 23.0414 36.0754 20.8703 35.618 18.7838C35.2637 18.8066 34.9078 18.8181 34.5509 18.8181C31.9074 18.8181 29.3212 18.187 27 17Z" stroke="#0266C1"/>
<rect x="0.5" y="0.5" width="53" height="53" stroke="#0266C1"/>
</g></symbol><symbol id="icon-star-border" viewBox="0 0 15 14"><g fill="none">
<path d="M7.74525 10.6055L7.5 10.4674L7.25475 10.6055L3.63071 12.6453L4.57642 8.85073L4.6535 8.54147L4.40569 8.34105L1.28779 5.81937L5.43318 5.48739L5.72674 5.46388L5.84852 5.19573L7.5 1.55927L9.15151 5.19574L9.27329 5.46388L9.56685 5.48739L13.7122 5.81937L10.5943 8.34105L10.3465 8.54147L10.4236 8.85073L11.3693 12.6453L7.74525 10.6055Z" stroke="white"/>
</g></symbol><symbol id="icon-star-white" viewBox="0 0 15 14"><g fill="none">
<path d="M7.5 11.0412L12.135 13.6501L10.9087 8.72981L15 5.4209L9.60676 4.98898L7.5 0.350098L5.39326 4.98898L0 5.4209L4.09126 8.72981L2.865 13.6501L7.5 11.0412Z" fill="white"/>
</g></symbol><symbol id="icon-tel" viewBox="0 0 22 22"><g fill="none">
<path d="M19.3236 20.0443C19.0034 20.6753 18.3438 21.0672 17.6426 20.9904C17.3412 20.9575 17.0402 20.9171 16.7396 20.8693C12.8229 20.2465 9.20304 18.3949 6.39895 15.5797C3.59486 12.7646 1.75046 9.1305 1.1301 5.19831C1.08254 4.89683 1.04236 4.59477 1.00952 4.29242C0.933062 3.58844 1.32346 2.92622 1.95195 2.60473L4.70244 1.19777C5.76693 0.653244 7.05498 1.28842 7.42933 2.42743C7.65638 3.11826 7.92452 3.79805 8.23342 4.4631C8.38821 4.79636 8.5524 5.12412 8.72567 5.44606C9.13588 6.20824 8.85917 7.18583 8.0736 7.54431C6.93267 8.06496 6.66094 9.56938 7.54713 10.4591L11.4995 14.427C12.3857 15.3167 13.8842 15.0439 14.4028 13.8985C14.7796 13.0663 15.8009 12.765 16.6118 13.1807C16.8084 13.2814 17.0071 13.3788 17.2078 13.4728C17.9681 13.8287 18.7478 14.1308 19.5413 14.3784C20.6964 14.7389 21.3521 16.0475 20.8029 17.1296L19.3236 20.0443Z" stroke="#2D383F" stroke-linecap="round" stroke-linejoin="round"/>
</g></symbol><symbol id="icon-trails-border" viewBox="0 0 54 54"><g fill="none">
<g clip-path="url(#clip0_131_2742)">
<path d="M34.1429 24.7674H28.7857C27.1091 24.7674 25.75 26.1366 25.75 27.8256C25.75 29.5145 27.1091 30.8837 28.7857 30.8837H31.1071C32.7837 30.8837 34.1429 32.2529 34.1429 33.9419C34.1429 35.6308 32.7837 37 31.1071 37H19.8571M22.7143 31.9302C22.7143 30.3406 21.4351 29.0519 19.8571 29.0519C18.2792 29.0519 17 30.3406 17 31.9302V32.0384C17 32.6695 17.1985 33.2845 17.567 33.7949L19.8515 36.9593C19.8543 36.9632 19.86 36.9632 19.8628 36.9593L22.1473 33.7949C22.5158 33.2845 22.7143 32.6695 22.7143 32.0384V31.9302ZM20.4095 30.7454L20.4266 30.7535C20.7724 30.9183 21.0245 31.2332 21.1111 31.6086C21.1987 31.9881 21.1046 32.3904 20.8608 32.6929C20.6196 32.9921 20.2548 33.1691 19.8723 33.1691H19.842C19.4594 33.1691 19.0946 32.9921 18.8535 32.6929C18.6097 32.3904 18.5156 31.9881 18.6032 31.6086C18.6898 31.2332 18.9419 30.9183 19.2877 30.7535L19.3048 30.7454C19.6545 30.5788 20.0598 30.5788 20.4095 30.7454ZM37 19.8985C37 18.3089 35.7208 17 34.1429 17C32.5649 17 31.2857 18.3089 31.2857 19.8985C31.2857 20.5234 31.4857 21.1384 31.8561 21.6397L34.1372 24.7277C34.14 24.7315 34.1457 24.7315 34.1485 24.7277L36.4297 21.6397C36.8 21.1384 37 20.5234 37 19.8985ZM34.6875 18.6514L34.7262 18.6694C35.0631 18.8263 35.3099 19.1302 35.3957 19.4939C35.4838 19.8669 35.3925 20.26 35.1492 20.5549L35.137 20.5697C34.8999 20.8573 34.548 21.0236 34.1769 21.0236H34.1088C33.7377 21.0236 33.3858 20.8573 33.1487 20.5697L33.1365 20.5549C32.8932 20.26 32.8019 19.8669 32.89 19.4939C32.9758 19.1302 33.2226 18.8263 33.5595 18.6694L33.5983 18.6514C33.9438 18.4905 34.342 18.4905 34.6875 18.6514Z" stroke="#0266C1" stroke-linecap="round"/>
</g>
<rect x="0.5" y="0.5" width="53" height="53" stroke="#0266C1"/>

</g></symbol><symbol id="icon-vk" viewBox="0 0 16 9">
<path d="M15.8574 8.02743C15.8144 7.95645 15.5484 7.38659 14.2683 6.21531C12.9282 4.98883 13.1082 5.18799 14.7223 3.06728C15.7054 1.77572 16.0984 0.986988 15.9754 0.649804C15.8584 0.328395 15.1353 0.413184 15.1353 0.413184L12.7312 0.426986C12.7312 0.426986 12.5531 0.403324 12.4201 0.481212C12.2911 0.558114 12.2081 0.735579 12.2081 0.735579C12.2081 0.735579 11.8271 1.7353 11.3191 2.58516C10.248 4.37855 9.81894 4.4732 9.64393 4.36179C9.2369 4.10249 9.33891 3.31869 9.33891 2.76263C9.33891 1.02445 9.60593 0.299803 8.81787 0.112478C8.55585 0.0503654 8.36384 0.00895679 7.69479 0.00205536C6.83672 -0.00681791 6.10967 0.00501311 5.69864 0.203183C5.42462 0.335296 5.21361 0.630086 5.34262 0.646846C5.50163 0.667551 5.86165 0.74248 6.05267 0.998819C6.29969 1.3291 6.29069 2.07248 6.29069 2.07248C6.29069 2.07248 6.4327 4.11827 5.95966 4.37263C5.63464 4.54714 5.1896 4.19122 4.23453 2.56347C3.7455 1.73037 3.37547 0.808537 3.37547 0.808537C3.37547 0.808537 3.30447 0.636987 3.17746 0.545297C3.02345 0.433888 2.80743 0.398395 2.80743 0.398395L0.521262 0.412198C0.521262 0.412198 0.178236 0.422057 0.0522271 0.568959C-0.0597811 0.700086 0.0432264 0.970227 0.0432264 0.970227C0.0432264 0.970227 1.83336 5.09827 3.85951 7.17954C5.71864 9.0873 7.8288 8.96208 7.8288 8.96208H8.78487C8.78487 8.96208 9.07389 8.93054 9.2209 8.77377C9.35691 8.62983 9.35191 8.35969 9.35191 8.35969C9.35191 8.35969 9.33291 7.09475 9.92895 6.90842C10.516 6.72504 11.2701 8.13095 12.0691 8.67222C12.6732 9.08138 13.1322 8.99166 13.1322 8.99166L15.2693 8.96208C15.2693 8.96208 16.3874 8.89406 15.8574 8.02743Z"/>
</symbol><symbol id="logotype" viewBox="0 0 142 42">
<g clip-path="url(#clip0_131_2520)">
<path d="M15.7314 27.2445L19.4995 23.359L23.7857 27.2445H31.1334L19.4524 16.0044L7.86561 27.2445H15.7314Z"/>
<path d="M26.5178 9.20485L20.9599 14.7555L24.6337 18.4559L26.5178 16.6057L36.8328 26.6894C34.4778 32.8414 28.4489 37.2357 21.3367 37.2357C12.1991 37.2357 4.80428 29.9736 4.80428 21C4.85138 12.0264 12.2462 4.76432 21.3838 4.76432C29.4851 4.76432 36.2676 10.5463 37.6336 18.0859L42.6262 23.2665C42.7204 22.5264 42.7675 21.7401 42.7675 21C42.7675 15.4031 40.5538 10.13 36.5031 6.15198C32.4525 2.17401 27.083 0 21.3838 0C15.6375 0 10.3151 2.17401 6.26441 6.15198C2.21374 10.13 0 15.3568 0 21C0 26.6432 2.21374 31.87 6.26441 35.848C10.3151 39.826 15.6846 42 21.3838 42C27.083 42 32.4525 39.826 36.5031 35.848C38.9995 33.3965 40.7893 30.4824 41.7784 27.2907C41.9668 26.7357 42.1081 26.1344 42.2494 25.5793L37.9162 21.0925L26.5178 9.20485Z"/>
<path d="M60.4115 13.4945H63.5561L61.8408 21.9634H67.1453L66.6371 24.4121H58.1881L60.4115 13.4945Z"/>
<path d="M70.1049 13.4945H73.2495L71.026 24.4121H67.8815L70.1049 13.4945Z"/>
<path d="M78.1389 15.8808L77.6466 18.2826H82.554L82.0617 20.6689H77.1701L76.4078 24.4121H73.2632L75.4867 13.4945H84.1898L83.6975 15.8808H78.1389Z"/>
<path d="M88.2809 15.8808L87.9157 17.7212H92.8549L92.3943 20.0295H87.4392L87.0422 22.0258H92.8707L92.3625 24.4121H83.4529L85.6764 13.4945H94.3795L93.8872 15.8808H88.2809Z"/>
<path d="M98.205 15.9431H94.7904L95.2987 13.4945H105.256L104.748 15.9431H101.35L99.6185 24.4121H96.4739L98.205 15.9431Z"/>
<path d="M110.053 24.6305C108.93 24.6305 107.951 24.4277 107.115 24.0222C106.289 23.6167 105.648 23.05 105.193 22.3222C104.748 21.5943 104.526 20.7625 104.526 19.8267C104.526 18.579 104.817 17.456 105.399 16.4578C105.992 15.4596 106.813 14.6798 107.861 14.1183C108.92 13.5569 110.122 13.2761 111.466 13.2761C112.588 13.2761 113.563 13.4789 114.388 13.8844C115.225 14.2899 115.865 14.8566 116.31 15.5844C116.765 16.3123 116.993 17.1441 116.993 18.0799C116.993 19.3276 116.697 20.4506 116.104 21.4488C115.521 22.4469 114.701 23.2268 113.642 23.7882C112.594 24.3497 111.397 24.6305 110.053 24.6305ZM110.323 22.0726C111.021 22.0726 111.636 21.9011 112.165 21.5579C112.694 21.2148 113.102 20.7573 113.388 20.1854C113.674 19.6032 113.817 18.9637 113.817 18.267C113.817 17.5288 113.584 16.9413 113.118 16.5046C112.663 16.0575 112.022 15.834 111.196 15.834C110.497 15.834 109.883 16.0055 109.354 16.3487C108.825 16.6918 108.417 17.1545 108.131 17.7368C107.845 18.3086 107.702 18.9429 107.702 19.6395C107.702 20.3778 107.93 20.9705 108.385 21.4176C108.851 21.8543 109.497 22.0726 110.323 22.0726Z"/>
<path d="M122.896 24.6305C121.933 24.6305 121.102 24.4745 120.403 24.1626C119.704 23.8402 119.169 23.3827 118.799 22.7901C118.428 22.1974 118.243 21.5007 118.243 20.7001C118.243 20.3674 118.285 19.9827 118.37 19.546L119.609 13.4945H122.753L121.53 19.4992C121.467 19.8111 121.435 20.097 121.435 20.357C121.435 21.5007 122.049 22.0726 123.277 22.0726C123.944 22.0726 124.469 21.8751 124.85 21.4799C125.241 21.0744 125.533 20.4142 125.723 19.4992L126.946 13.4945H130.043L128.788 19.6863C128.111 22.9824 126.147 24.6305 122.896 24.6305Z"/>
<path d="M141.416 16.9725C141.416 17.9707 141.146 18.8337 140.606 19.5616C140.066 20.279 139.309 20.8041 138.335 21.1368L140.225 24.4121H136.938L135.286 21.5111H133.698L133.11 24.4121H129.966L132.189 13.4945H136.938C138.357 13.4945 139.458 13.8012 140.241 14.4147C141.025 15.0281 141.416 15.8808 141.416 16.9725ZM138.24 17.2689C138.24 16.8218 138.087 16.489 137.779 16.2707C137.472 16.0419 137.044 15.9275 136.493 15.9275H134.841L134.174 19.1249H136.048C136.747 19.1249 137.287 18.9637 137.668 18.6414C138.049 18.319 138.24 17.8615 138.24 17.2689Z"/>
<path d="M60.2817 34.7063C59.8987 34.7063 59.5507 34.6231 59.2376 34.4567C58.9283 34.2867 58.6852 34.0553 58.5085 33.7623C58.3354 33.4694 58.2488 33.1403 58.2488 32.775C58.2488 32.4097 58.3354 32.0806 58.5085 31.7877C58.6852 31.4947 58.9283 31.2651 59.2376 31.0987C59.5507 30.9287 59.8987 30.8437 60.2817 30.8437C60.6647 30.8437 61.009 30.9269 61.3147 31.0933C61.624 31.2596 61.8671 31.4911 62.0439 31.7877C62.2206 32.0806 62.309 32.4097 62.309 32.775C62.309 33.1403 62.2206 33.4712 62.0439 33.7678C61.8671 34.0607 61.624 34.2904 61.3147 34.4567C61.009 34.6231 60.6647 34.7063 60.2817 34.7063ZM60.2817 34.3482C60.5873 34.3482 60.8635 34.2813 61.1103 34.1475C61.357 34.0101 61.5504 33.822 61.6903 33.5833C61.8303 33.341 61.9002 33.0716 61.9002 32.775C61.9002 32.4784 61.8303 32.2108 61.6903 31.9721C61.5504 31.7298 61.357 31.5417 61.1103 31.4079C60.8635 31.2705 60.5873 31.2018 60.2817 31.2018C59.976 31.2018 59.698 31.2705 59.4475 31.4079C59.2008 31.5417 59.0056 31.7298 58.862 31.9721C58.7221 32.2108 58.6521 32.4784 58.6521 32.775C58.6521 33.0716 58.7221 33.341 58.862 33.5833C59.0056 33.822 59.2008 34.0101 59.4475 34.1475C59.698 34.2813 59.976 34.3482 60.2817 34.3482Z"/>
<path d="M64.6876 31.7985C64.9601 31.7985 65.2068 31.86 65.4278 31.983C65.6488 32.1023 65.8219 32.2723 65.9471 32.4929C66.0723 32.7135 66.1349 32.9649 66.1349 33.247C66.1349 33.5327 66.0723 33.7858 65.9471 34.0065C65.8219 34.2271 65.6488 34.3989 65.4278 34.5218C65.2105 34.6412 64.9638 34.7008 64.6876 34.7008C64.4519 34.7008 64.2383 34.6538 64.0468 34.5598C63.859 34.4622 63.7043 34.3211 63.5828 34.1367V35.7262H63.1906V31.8202H63.5662V32.3844C63.684 32.1963 63.8387 32.0517 64.0302 31.9504C64.2254 31.8492 64.4445 31.7985 64.6876 31.7985ZM64.66 34.3591C64.8625 34.3591 65.0466 34.3139 65.2124 34.2235C65.3781 34.1294 65.507 33.9974 65.5991 33.8274C65.6948 33.6575 65.7427 33.464 65.7427 33.247C65.7427 33.03 65.6948 32.8383 65.5991 32.6719C65.507 32.5019 65.3781 32.3699 65.2124 32.2759C65.0466 32.1819 64.8625 32.1349 64.66 32.1349C64.4537 32.1349 64.2678 32.1819 64.102 32.2759C63.94 32.3699 63.8111 32.5019 63.7154 32.6719C63.6233 32.8383 63.5772 33.03 63.5772 33.247C63.5772 33.464 63.6233 33.6575 63.7154 33.8274C63.8111 33.9974 63.94 34.1294 64.102 34.2235C64.2678 34.3139 64.4537 34.3591 64.66 34.3591Z"/>
<path d="M69.0325 32.162H67.3698V34.6737H66.9776V31.8202H69.0325V32.162Z"/>
<path d="M70.5992 31.7985C70.9785 31.7985 71.2694 31.8925 71.472 32.0806C71.6745 32.2651 71.7758 32.5399 71.7758 32.9052V34.6737H71.4002V34.2289C71.3118 34.3772 71.1811 34.4929 71.008 34.5761C70.8386 34.6593 70.636 34.7008 70.4003 34.7008C70.0762 34.7008 69.8185 34.6249 69.627 34.473C69.4355 34.3211 69.3397 34.1204 69.3397 33.8708C69.3397 33.6285 69.4281 33.4332 69.6049 33.2849C69.7853 33.1367 70.0707 33.0625 70.4611 33.0625H71.3836V32.8889C71.3836 32.643 71.3136 32.4567 71.1737 32.3302C71.0337 32.2 70.8294 32.1349 70.5605 32.1349C70.3764 32.1349 70.1996 32.1656 70.0302 32.2271C69.8608 32.285 69.7153 32.3663 69.5938 32.4712L69.417 32.1837C69.5643 32.0607 69.7411 31.9667 69.9473 31.9016C70.1536 31.8329 70.3709 31.7985 70.5992 31.7985ZM70.4611 34.3971C70.682 34.3971 70.8717 34.3482 71.0301 34.2506C71.1884 34.1493 71.3063 34.0047 71.3836 33.8166V33.35H70.4721C69.975 33.35 69.7264 33.52 69.7264 33.86C69.7264 34.0263 69.7908 34.1584 69.9197 34.256C70.0486 34.35 70.2291 34.3971 70.4611 34.3971Z"/>
<path d="M72.8199 31.8202H73.2121V33.0842H75.0406V31.8202H75.4328V34.6737H75.0406V33.4151H73.2121V34.6737H72.8199V31.8202Z"/>
<path d="M76.5476 31.8202H76.9398V34.0878L78.8787 31.8202H79.2267V34.6737H78.8345V32.4061L76.9011 34.6737H76.5476V31.8202Z"/>
<path d="M81.7056 33.1873C81.9118 33.2343 82.0701 33.3157 82.1806 33.4314C82.2948 33.5471 82.3519 33.6882 82.3519 33.8546C82.3519 34.0209 82.293 34.1692 82.1751 34.2994C82.0609 34.4296 81.9044 34.5309 81.7056 34.6032C81.5067 34.6719 81.2876 34.7063 81.0482 34.7063C80.8383 34.7063 80.632 34.6773 80.4295 34.6195C80.227 34.558 80.0502 34.4694 79.8992 34.3537L80.0318 34.0661C80.1643 34.1638 80.319 34.2397 80.4958 34.294C80.6726 34.3482 80.8512 34.3754 81.0316 34.3754C81.3005 34.3754 81.5196 34.3265 81.689 34.2289C81.8621 34.1276 81.9486 33.992 81.9486 33.822C81.9486 33.6701 81.8786 33.5526 81.7387 33.4694C81.5988 33.3826 81.4073 33.3392 81.1642 33.3392H80.667V33.0571H81.1421C81.3594 33.0571 81.5343 33.0173 81.6669 32.9377C81.7995 32.8546 81.8658 32.7443 81.8658 32.6068C81.8658 32.4549 81.7903 32.3356 81.6393 32.2488C81.492 32.162 81.2986 32.1186 81.0592 32.1186C80.7462 32.1186 80.4369 32.1963 80.1312 32.3519L80.0207 32.0535C80.3669 31.8763 80.726 31.7877 81.0979 31.7877C81.3189 31.7877 81.5177 31.8202 81.6945 31.8853C81.875 31.9468 82.0149 32.0354 82.1143 32.1511C82.2175 32.2669 82.269 32.4007 82.269 32.5526C82.269 32.6972 82.2175 32.8256 82.1143 32.9377C82.0149 33.0499 81.8786 33.133 81.7056 33.1873Z"/>
<path d="M84.2421 31.7985C84.6214 31.7985 84.9123 31.8925 85.1149 32.0806C85.3174 32.2651 85.4187 32.5399 85.4187 32.9052V34.6737H85.0431V34.2289C84.9547 34.3772 84.824 34.4929 84.6509 34.5761C84.4815 34.6593 84.2789 34.7008 84.0432 34.7008C83.7191 34.7008 83.4614 34.6249 83.2699 34.473C83.0784 34.3211 82.9826 34.1204 82.9826 33.8708C82.9826 33.6285 83.071 33.4332 83.2478 33.2849C83.4282 33.1367 83.7136 33.0625 84.104 33.0625H85.0265V32.8889C85.0265 32.643 84.9565 32.4567 84.8166 32.3302C84.6766 32.2 84.4723 32.1349 84.2034 32.1349C84.0193 32.1349 83.8425 32.1656 83.6731 32.2271C83.5037 32.285 83.3582 32.3663 83.2367 32.4712L83.0599 32.1837C83.2073 32.0607 83.384 31.9667 83.5902 31.9016C83.7965 31.8329 84.0138 31.7985 84.2421 31.7985ZM84.104 34.3971C84.325 34.3971 84.5146 34.3482 84.673 34.2506C84.8313 34.1493 84.9492 34.0047 85.0265 33.8166V33.35H84.115C83.6179 33.35 83.3693 33.52 83.3693 33.86C83.3693 34.0263 83.4337 34.1584 83.5626 34.256C83.6915 34.35 83.872 34.3971 84.104 34.3971Z"/>
<path d="M89.49 34.3374V35.3898H89.1199V34.6737H86.4628V31.8202H86.855V34.3374H88.6282V31.8202H89.0204V34.3374H89.49Z"/>
<path d="M90.239 31.8202H90.6312V34.0878L92.5702 31.8202H92.9182V34.6737H92.526V32.4061L90.5926 34.6737H90.239V31.8202Z"/>
<path d="M96.2739 31.8202V34.6737H95.9148V33.7298H94.8929L94.219 34.6737H93.7936L94.5173 33.6755C94.2926 33.6141 94.1195 33.5092 93.998 33.3609C93.8765 33.2126 93.8157 33.0245 93.8157 32.7967C93.8157 32.4784 93.9262 32.2361 94.1472 32.0698C94.3681 31.9034 94.6701 31.8202 95.0531 31.8202H96.2739ZM94.2134 32.8076C94.2134 33.2307 94.4878 33.4423 95.0365 33.4423H95.9148V32.162H95.0641C94.497 32.162 94.2134 32.3772 94.2134 32.8076Z"/>
<path d="M101.445 31.8202V34.6737H101.053V32.162H99.2302V34.6737H98.838V31.8202H101.445Z"/>
<path d="M103.759 34.7008C103.479 34.7008 103.227 34.6394 103.002 34.5164C102.778 34.3898 102.601 34.2162 102.472 33.9956C102.343 33.775 102.279 33.5254 102.279 33.247C102.279 32.9685 102.343 32.7189 102.472 32.4983C102.601 32.2777 102.778 32.1059 103.002 31.983C103.227 31.86 103.479 31.7985 103.759 31.7985C104.039 31.7985 104.291 31.86 104.516 31.983C104.74 32.1059 104.915 32.2777 105.041 32.4983C105.169 32.7189 105.234 32.9685 105.234 33.247C105.234 33.5254 105.169 33.775 105.041 33.9956C104.915 34.2162 104.74 34.3898 104.516 34.5164C104.291 34.6394 104.039 34.7008 103.759 34.7008ZM103.759 34.3591C103.965 34.3591 104.149 34.3139 104.311 34.2235C104.477 34.1294 104.606 33.9974 104.698 33.8274C104.79 33.6575 104.836 33.464 104.836 33.247C104.836 33.03 104.79 32.8365 104.698 32.6665C104.606 32.4965 104.477 32.3663 104.311 32.2759C104.149 32.1819 103.965 32.1349 103.759 32.1349C103.553 32.1349 103.367 32.1819 103.201 32.2759C103.039 32.3663 102.91 32.4965 102.814 32.6665C102.722 32.8365 102.676 33.03 102.676 33.247C102.676 33.464 102.722 33.6575 102.814 33.8274C102.91 33.9974 103.039 34.1294 103.201 34.2235C103.367 34.3139 103.553 34.3591 103.759 34.3591Z"/>
<path d="M107.787 34.6737L106.865 33.4802L105.936 34.6737H105.495L106.644 33.209L105.55 31.8202H105.992L106.865 32.9377L107.737 31.8202H108.168L107.074 33.209L108.234 34.6737H107.787Z"/>
<path d="M109.974 34.7008C109.694 34.7008 109.441 34.6394 109.217 34.5164C108.992 34.3898 108.815 34.2162 108.686 33.9956C108.558 33.775 108.493 33.5254 108.493 33.247C108.493 32.9685 108.558 32.7189 108.686 32.4983C108.815 32.2777 108.992 32.1059 109.217 31.983C109.441 31.86 109.694 31.7985 109.974 31.7985C110.253 31.7985 110.506 31.86 110.73 31.983C110.955 32.1059 111.13 32.2777 111.255 32.4983C111.384 32.7189 111.448 32.9685 111.448 33.247C111.448 33.5254 111.384 33.775 111.255 33.9956C111.13 34.2162 110.955 34.3898 110.73 34.5164C110.506 34.6394 110.253 34.7008 109.974 34.7008ZM109.974 34.3591C110.18 34.3591 110.364 34.3139 110.526 34.2235C110.692 34.1294 110.821 33.9974 110.913 33.8274C111.005 33.6575 111.051 33.464 111.051 33.247C111.051 33.03 111.005 32.8365 110.913 32.6665C110.821 32.4965 110.692 32.3663 110.526 32.2759C110.364 32.1819 110.18 32.1349 109.974 32.1349C109.767 32.1349 109.581 32.1819 109.416 32.2759C109.254 32.3663 109.125 32.4965 109.029 32.6665C108.937 32.8365 108.891 33.03 108.891 33.247C108.891 33.464 108.937 33.6575 109.029 33.8274C109.125 33.9974 109.254 34.1294 109.416 34.2235C109.581 34.3139 109.767 34.3591 109.974 34.3591Z"/>
<path d="M115.104 34.3374V35.3627H114.734V34.6737H112.132V35.3627H111.762V34.3374H111.928C112.123 34.3265 112.256 34.1855 112.326 33.9142C112.396 33.643 112.444 33.2632 112.469 32.775L112.508 31.8202H114.651V34.3374H115.104ZM112.828 32.7967C112.81 33.2018 112.775 33.5363 112.723 33.8003C112.672 34.0607 112.58 34.2397 112.447 34.3374H114.259V32.162H112.862L112.828 32.7967Z"/>
<path d="M117.067 34.7008C116.788 34.7008 116.535 34.6394 116.311 34.5164C116.086 34.3898 115.909 34.2162 115.78 33.9956C115.651 33.775 115.587 33.5254 115.587 33.247C115.587 32.9685 115.651 32.7189 115.78 32.4983C115.909 32.2777 116.086 32.1059 116.311 31.983C116.535 31.86 116.788 31.7985 117.067 31.7985C117.347 31.7985 117.6 31.86 117.824 31.983C118.049 32.1059 118.224 32.2777 118.349 32.4983C118.478 32.7189 118.542 32.9685 118.542 33.247C118.542 33.5254 118.478 33.775 118.349 33.9956C118.224 34.2162 118.049 34.3898 117.824 34.5164C117.6 34.6394 117.347 34.7008 117.067 34.7008ZM117.067 34.3591C117.274 34.3591 117.458 34.3139 117.62 34.2235C117.786 34.1294 117.914 33.9974 118.006 33.8274C118.099 33.6575 118.145 33.464 118.145 33.247C118.145 33.03 118.099 32.8365 118.006 32.6665C117.914 32.4965 117.786 32.3663 117.62 32.2759C117.458 32.1819 117.274 32.1349 117.067 32.1349C116.861 32.1349 116.675 32.1819 116.509 32.2759C116.347 32.3663 116.219 32.4965 116.123 32.6665C116.031 32.8365 115.985 33.03 115.985 33.247C115.985 33.464 116.031 33.6575 116.123 33.8274C116.219 33.9974 116.347 34.1294 116.509 34.2235C116.675 34.3139 116.861 34.3591 117.067 34.3591Z"/>
<path d="M121.231 33.1981C121.625 33.2886 121.822 33.5218 121.822 33.898C121.822 34.1475 121.728 34.3392 121.54 34.473C121.353 34.6068 121.073 34.6737 120.701 34.6737H119.381V31.8202H120.662C120.994 31.8202 121.253 31.8835 121.441 32.0101C121.629 32.1367 121.723 32.3175 121.723 32.5526C121.723 32.7081 121.679 32.8419 121.59 32.954C121.505 33.0625 121.386 33.1439 121.231 33.1981ZM119.762 33.0896H120.635C120.859 33.0896 121.03 33.0481 121.148 32.9649C121.27 32.8817 121.331 32.7605 121.331 32.6014C121.331 32.4423 121.27 32.3229 121.148 32.2434C121.03 32.1638 120.859 32.124 120.635 32.124H119.762V33.0896ZM120.684 34.3699C120.935 34.3699 121.122 34.3301 121.248 34.2506C121.373 34.171 121.436 34.0462 121.436 33.8763C121.436 33.7063 121.378 33.5815 121.264 33.5019C121.15 33.4188 120.97 33.3772 120.723 33.3772H119.762V34.3699H120.684Z"/>
<path d="M126.038 33.1981C126.432 33.2886 126.629 33.5218 126.629 33.898C126.629 34.1475 126.535 34.3392 126.347 34.473C126.159 34.6068 125.879 34.6737 125.507 34.6737H124.187V31.8202H125.469C125.8 31.8202 126.06 31.8835 126.248 32.0101C126.435 32.1367 126.529 32.3175 126.529 32.5526C126.529 32.7081 126.485 32.8419 126.397 32.954C126.312 33.0625 126.192 33.1439 126.038 33.1981ZM124.568 33.0896H125.441C125.666 33.0896 125.837 33.0481 125.955 32.9649C126.076 32.8817 126.137 32.7605 126.137 32.6014C126.137 32.4423 126.076 32.3229 125.955 32.2434C125.837 32.1638 125.666 32.124 125.441 32.124H124.568V33.0896ZM125.491 34.3699C125.741 34.3699 125.929 34.3301 126.054 34.2506C126.179 34.171 126.242 34.0462 126.242 33.8763C126.242 33.7063 126.185 33.5815 126.071 33.5019C125.957 33.4188 125.776 33.3772 125.529 33.3772H124.568V34.3699H125.491Z"/>
<path d="M131.049 32.162H129.386V34.6737H128.994V31.8202H131.049V32.162Z"/>
<path d="M132.679 34.7008C132.399 34.7008 132.147 34.6394 131.923 34.5164C131.698 34.3898 131.521 34.2162 131.392 33.9956C131.263 33.775 131.199 33.5254 131.199 33.247C131.199 32.9685 131.263 32.7189 131.392 32.4983C131.521 32.2777 131.698 32.1059 131.923 31.983C132.147 31.86 132.399 31.7985 132.679 31.7985C132.959 31.7985 133.211 31.86 133.436 31.983C133.661 32.1059 133.836 32.2777 133.961 32.4983C134.09 32.7189 134.154 32.9685 134.154 33.247C134.154 33.5254 134.09 33.775 133.961 33.9956C133.836 34.2162 133.661 34.3898 133.436 34.5164C133.211 34.6394 132.959 34.7008 132.679 34.7008ZM132.679 34.3591C132.886 34.3591 133.07 34.3139 133.232 34.2235C133.397 34.1294 133.526 33.9974 133.618 33.8274C133.71 33.6575 133.757 33.464 133.757 33.247C133.757 33.03 133.71 32.8365 133.618 32.6665C133.526 32.4965 133.397 32.3663 133.232 32.2759C133.07 32.1819 132.886 32.1349 132.679 32.1349C132.473 32.1349 132.287 32.1819 132.121 32.2759C131.959 32.3663 131.83 32.4965 131.735 32.6665C131.643 32.8365 131.597 33.03 131.597 33.247C131.597 33.464 131.643 33.6575 131.735 33.8274C131.83 33.9974 131.959 34.1294 132.121 34.2235C132.287 34.3139 132.473 34.3591 132.679 34.3591Z"/>
<path d="M136.49 31.7985C136.762 31.7985 137.009 31.86 137.23 31.983C137.451 32.1023 137.624 32.2723 137.749 32.4929C137.874 32.7135 137.937 32.9649 137.937 33.247C137.937 33.5327 137.874 33.7858 137.749 34.0065C137.624 34.2271 137.451 34.3989 137.23 34.5218C137.012 34.6412 136.766 34.7008 136.49 34.7008C136.254 34.7008 136.04 34.6538 135.849 34.5598C135.661 34.4622 135.506 34.3211 135.385 34.1367V35.7262H134.992V31.8202H135.368V32.3844C135.486 32.1963 135.641 32.0517 135.832 31.9504C136.027 31.8492 136.246 31.7985 136.49 31.7985ZM136.462 34.3591C136.664 34.3591 136.849 34.3139 137.014 34.2235C137.18 34.1294 137.309 33.9974 137.401 33.8274C137.497 33.6575 137.545 33.464 137.545 33.247C137.545 33.03 137.497 32.8383 137.401 32.6719C137.309 32.5019 137.18 32.3699 137.014 32.2759C136.849 32.1819 136.664 32.1349 136.462 32.1349C136.256 32.1349 136.07 32.1819 135.904 32.2759C135.742 32.3699 135.613 32.5019 135.517 32.6719C135.425 32.8383 135.379 33.03 135.379 33.247C135.379 33.464 135.425 33.6575 135.517 33.8274C135.613 33.9974 135.742 34.1294 135.904 34.2235C136.07 34.3139 136.256 34.3591 136.462 34.3591Z"/>
<path d="M140 32.8293C140.365 32.8329 140.643 32.9124 140.834 33.0679C141.026 33.2235 141.122 33.4477 141.122 33.7406C141.122 34.0444 141.019 34.2777 140.812 34.4404C140.606 34.6032 140.311 34.6828 139.928 34.6791L138.779 34.6737V31.8202H139.172V32.8184L140 32.8293ZM141.608 31.8202H142V34.6737H141.608V31.8202ZM139.906 34.3862C140.175 34.3898 140.378 34.3374 140.514 34.2289C140.654 34.1168 140.724 33.954 140.724 33.7406C140.724 33.5309 140.656 33.3754 140.52 33.2741C140.383 33.1728 140.179 33.1204 139.906 33.1168L139.172 33.1059V34.3754L139.906 34.3862Z"/>
</g>

</symbol></svg>